<svg version="1.2" xmlns="http://www.w3.org/2000/svg" viewBox="0 0 2751 2826" width="2751" height="2826">
	<title>Wavy_Tech-28_Single-10-ai</title>
	<defs>
		<linearGradient id="g1" x2="1" gradientUnits="userSpaceOnUse" gradientTransform="matrix(803.74,-2170.73,938.866,347.627,25.274,1431.039)">
			<stop offset=".004" stop-color="#e38ddd"/>
			<stop offset="1" stop-color="#9571f6"/>
		</linearGradient>
		<linearGradient id="g2" x2="1" gradientUnits="userSpaceOnUse" gradientTransform="matrix(1416.714,0,0,1594.063,1299.803,1008.847)">
			<stop offset="0" stop-color="#ff9085"/>
			<stop offset="1" stop-color="#fb6fbb"/>
		</linearGradient>
		<linearGradient id="g3" x2="1" gradientUnits="userSpaceOnUse" gradientTransform="matrix(583.261,63.628,-122.756,1125.266,1518.131,2909.64)">
			<stop offset="0" stop-color="#444b8c"/>
			<stop offset=".996" stop-color="#26264f"/>
		</linearGradient>
		<linearGradient id="g4" x2="1" gradientUnits="userSpaceOnUse" gradientTransform="matrix(1115.545,3797.783,-3095.923,909.383,-819.335,935.897)">
			<stop offset="0" stop-color="#444b8c"/>
			<stop offset=".996" stop-color="#26264f"/>
		</linearGradient>
		<linearGradient id="g5" x2="1" gradientUnits="userSpaceOnUse" gradientTransform="matrix(1635.682,4429.97,-4873.619,1799.49,1647.422,311.815)">
			<stop offset="0" stop-color="#ffc444"/>
			<stop offset=".996" stop-color="#f36f56"/>
		</linearGradient>
		<linearGradient id="g6" x2="1" gradientUnits="userSpaceOnUse" gradientTransform="matrix(1158.053,-1092.004,1059.266,1123.335,-12974.476,12605.051)">
			<stop offset="0" stop-color="#311944"/>
			<stop offset="1" stop-color="#893976"/>
		</linearGradient>
		<linearGradient id="g7" x2="1" gradientUnits="userSpaceOnUse" gradientTransform="matrix(927.747,-841.906,817.237,900.563,-222.073,553.181)">
			<stop offset="0" stop-color="#ff9085"/>
			<stop offset="1" stop-color="#fb6fbb"/>
		</linearGradient>
		<linearGradient id="g8" x2="1" gradientUnits="userSpaceOnUse" gradientTransform="matrix(-150.39,153.075,-90.74,-89.148,840.913,1309.221)">
			<stop offset="0" stop-color="#ffc444"/>
			<stop offset=".996" stop-color="#f36f56"/>
		</linearGradient>
		<linearGradient id="g9" x2="1" gradientUnits="userSpaceOnUse" gradientTransform="matrix(1.128,-302.414,696.203,2.598,577.511,2642.773)">
			<stop offset="0" stop-color="#aa80f9"/>
			<stop offset=".996" stop-color="#6165d7"/>
		</linearGradient>
		<linearGradient id="g10" x2="1" gradientUnits="userSpaceOnUse" gradientTransform="matrix(-14.271,-154.871,122.98,-11.333,561.536,2737.729)">
			<stop offset="0" stop-color="#ffc444"/>
			<stop offset=".996" stop-color="#f36f56"/>
		</linearGradient>
		<linearGradient id="g11" x2="1" gradientUnits="userSpaceOnUse" gradientTransform="matrix(1.128,-302.414,696.208,2.598,401.784,2641.518)">
			<stop offset="0" stop-color="#aa80f9"/>
			<stop offset=".996" stop-color="#6165d7"/>
		</linearGradient>
		<linearGradient id="g12" x2="1" gradientUnits="userSpaceOnUse" gradientTransform="matrix(-14.271,-154.872,122.98,-11.333,383.426,2754.004)">
			<stop offset="0" stop-color="#ffc444"/>
			<stop offset=".996" stop-color="#f36f56"/>
		</linearGradient>
		<linearGradient id="g13" x2="1" gradientUnits="userSpaceOnUse" gradientTransform="matrix(-115.378,589.868,-227.866,-44.57,-1443.913,1561.206)">
			<stop offset="0" stop-color="#311944"/>
			<stop offset="1" stop-color="#893976"/>
		</linearGradient>
		<linearGradient id="g14" x2="1" gradientUnits="userSpaceOnUse" gradientTransform="matrix(-164.141,13.157,-97.644,-1218.171,553.788,1815.651)">
			<stop offset="0" stop-color="#311944"/>
			<stop offset="1" stop-color="#893976"/>
		</linearGradient>
		<linearGradient id="g15" x2="1" gradientUnits="userSpaceOnUse" gradientTransform="matrix(-249.182,19.974,-68.557,-855.293,462.449,1839.647)">
			<stop offset="0" stop-color="#311944"/>
			<stop offset="1" stop-color="#893976"/>
		</linearGradient>
		<linearGradient id="g16" x2="1" gradientUnits="userSpaceOnUse" gradientTransform="matrix(-237.629,1526.107,-1958.863,-305.013,528.318,1388.039)">
			<stop offset="0" stop-color="#aa80f9"/>
			<stop offset=".996" stop-color="#6165d7"/>
		</linearGradient>
		<linearGradient id="g17" x2="1" gradientUnits="userSpaceOnUse" gradientTransform="matrix(-94.673,1268.718,-892.851,-66.626,-167.953,2774.731)">
			<stop offset="0" stop-color="#aa80f9"/>
			<stop offset=".996" stop-color="#6165d7"/>
		</linearGradient>
		<linearGradient id="g18" x2="1" gradientUnits="userSpaceOnUse" gradientTransform="matrix(782.413,-1340.208,1846.752,1078.133,266.168,2853.61)">
			<stop offset="0" stop-color="#aa80f9"/>
			<stop offset=".996" stop-color="#6165d7"/>
		</linearGradient>
		<linearGradient id="g19" x2="1" gradientUnits="userSpaceOnUse" gradientTransform="matrix(148.209,200.212,-274.417,203.14,127.92,1727.02)">
			<stop offset="0" stop-color="#ffc444"/>
			<stop offset=".996" stop-color="#f36f56"/>
		</linearGradient>
		<linearGradient id="g20" x2="1" gradientUnits="userSpaceOnUse" gradientTransform="matrix(-93.123,1247.947,-554.684,-41.391,-456.957,2748.145)">
			<stop offset="0" stop-color="#aa80f9"/>
			<stop offset=".996" stop-color="#6165d7"/>
		</linearGradient>
		<linearGradient id="g21" x2="1" gradientUnits="userSpaceOnUse" gradientTransform="matrix(-99.919,-124.32,124.816,-100.317,518.706,1363.632)">
			<stop offset="0" stop-color="#ffc444"/>
			<stop offset=".996" stop-color="#f36f56"/>
		</linearGradient>
		<linearGradient id="g22" x2="1" gradientUnits="userSpaceOnUse" gradientTransform="matrix(63.795,-209.867,158.905,48.304,452,1406.454)">
			<stop offset="0" stop-color="#444b8c"/>
			<stop offset=".996" stop-color="#3e4177"/>
		</linearGradient>
		<linearGradient id="g23" x2="1" gradientUnits="userSpaceOnUse" gradientTransform="matrix(-202.977,-90.347,87.005,-195.467,572.786,1279.195)">
			<stop offset="0" stop-color="#ffc444"/>
			<stop offset=".996" stop-color="#f36f56"/>
		</linearGradient>
		<linearGradient id="g24" x2="1" gradientUnits="userSpaceOnUse" gradientTransform="matrix(1343.032,0,0,1689.974,801.837,659.022)">
			<stop offset="0" stop-color="#311944"/>
			<stop offset="1" stop-color="#893976"/>
		</linearGradient>
		<linearGradient id="g25" x2="1" gradientUnits="userSpaceOnUse" gradientTransform="matrix(-163.136,-2825.783,2333.877,-134.738,530.073,4256.995)">
			<stop offset=".004" stop-color="#f36f56"/>
			<stop offset="1" stop-color="#ffc444"/>
		</linearGradient>
		<linearGradient id="g26" x2="1" gradientUnits="userSpaceOnUse" gradientTransform="matrix(966.304,0,0,173.234,982.997,1271.337)">
			<stop offset=".004" stop-color="#f36f56"/>
			<stop offset="1" stop-color="#ffc444"/>
		</linearGradient>
		<linearGradient id="g27" x2="1" gradientUnits="userSpaceOnUse" gradientTransform="matrix(965.561,0,0,179.44,948.837,1521.751)">
			<stop offset=".004" stop-color="#f36f56"/>
			<stop offset="1" stop-color="#ffc444"/>
		</linearGradient>
		<linearGradient id="g28" x2="1" gradientUnits="userSpaceOnUse" gradientTransform="matrix(-270.249,1713.776,-3456.342,-545.038,1509.646,1645.73)">
			<stop offset=".004" stop-color="#f36f56"/>
			<stop offset="1" stop-color="#ffc444"/>
		</linearGradient>
		<linearGradient id="g29" x2="1" gradientUnits="userSpaceOnUse" gradientTransform="matrix(47.833,1424.351,-1453.872,48.824,1670.476,248.372)">
			<stop offset=".004" stop-color="#f36f56"/>
			<stop offset="1" stop-color="#ffc444"/>
		</linearGradient>
	</defs>
	<style>
		.s0 { fill: url(#g1) } 
		.s1 { fill: #ffffff } 
		.s2 { fill: url(#g2) } 
		.s3 { fill: #d8dee8 } 
		.s4 { fill: url(#g3) } 
		.s5 { fill: url(#g4) } 
		.s6 { fill: url(#g5) } 
		.s7 { fill: url(#g6) } 
		.s8 { fill: url(#g7) } 
		.s9 { opacity: .5;mix-blend-mode: soft-light;fill: #ffffff } 
		.s10 { fill: url(#g8) } 
		.s11 { fill: url(#g9) } 
		.s12 { fill: url(#g10) } 
		.s13 { fill: url(#g11) } 
		.s14 { fill: url(#g12) } 
		.s15 { fill: url(#g13) } 
		.s16 { opacity: .3;mix-blend-mode: multiply;fill: url(#g14) } 
		.s17 { fill: url(#g15) } 
		.s18 { fill: url(#g16) } 
		.s19 { fill: url(#g17) } 
		.s20 { fill: url(#g18) } 
		.s21 { fill: url(#g19) } 
		.s22 { fill: url(#g20) } 
		.s23 { fill: url(#g21) } 
		.s24 { fill: url(#g22) } 
		.s25 { fill: url(#g23) } 
		.s26 { fill: url(#g24) } 
		.s27 { fill: url(#g25) } 
		.s28 { opacity: .1;mix-blend-mode: multiply;fill: url(#g26) } 
		.s29 { opacity: .1;mix-blend-mode: multiply;fill: url(#g27) } 
		.s30 { fill: url(#g28) } 
		.s31 { fill: url(#g29) } 
		.s32 { opacity: .4;mix-blend-mode: soft-light;fill: #ffffff } 
	</style>
	<g id="_Artboards_">
	</g>
	<g id="Background">
		<g id="&lt;Group&gt;">
			<g id="&lt;Group&gt;">
			</g>
		</g>
	</g>
	<g id="Illustration">
		<g id="&lt;Group&gt;">
			<g id="&lt;Group&gt;">
				<g id="&lt;Group&gt;">
					<path id="&lt;Path&gt;" class="s0" d="m2438.1 209.6c-32.1-26.6-80.8-41-122-44-291.6-20.6-334.2 589.1-289.5 725.3 44.7 136.3 15.7 181-214 252.3-229.7 71.3-119.5 208.6-91.5 288.8 28 80.3 83.4 148.1-84 227.9-167.5 79.7-109.3 129.2-109.3 129.2 0 0 308.8 315.9 291.8 214.7-17.1-101.1 13.8-253.8 290.7-265.4 119.3-5 301.9-61.9 342.4-189.6 9.4-29.8 15.9-75.2 8.8-106-10-42.7-38-76.3-53.5-116.5-36.3-93.7 54.6-162.2 107-224.8 27.3-32.7 54.6-66.2 75.6-103.5 43.4-77.3 27.1-160.3-20.2-231.6-22.7-34.2-54.2-70.5-64.1-111.3-10.6-43.8-1.3-103.6 1.2-148.7 2-35.4 5.3-70.6 3.3-106-3.7-65.9-19.1-146.5-72.7-190.8z"/>
					<g id="&lt;Clip Group&gt;">
						<g id="&lt;Group&gt;" style="opacity: .8;mix-blend-mode: soft-light">
							<g id="&lt;Group&gt;">
								<path id="&lt;Path&gt;" class="s1" d="m1503.5 1966.4c-2 0.7-4.3-0.2-5.3-2.1-1.1-2.1-0.3-4.7 1.9-5.8 1.3-0.7 131.3-69.1 276.3-181.7 133.7-103.8 307.8-267.5 378.3-457.7 58.8-158.9 112.5-421.6 147.3-720.7 31.1-268.2 36.1-466.5 22.8-503.4-0.8-2.2 0.4-4.7 2.6-5.5 2.3-0.8 4.7 0.4 5.5 2.6 15.5 43.1 5.7 265.9-22.4 507.3-34.8 299.8-88.6 563.2-147.7 722.7-71.3 192.2-246.6 357.1-381.2 461.6-145.7 113.1-276.2 181.7-277.5 182.4q-0.3 0.2-0.6 0.3z"/>
							</g>
							<g id="&lt;Group&gt;">
								<path id="&lt;Path&gt;" class="s1" d="m2301.5 650.4c-2.2 0.8-4.5 0.2-5.3-2-1.1-3-109.8-295.5-250.1-361.6-2.1-1-3-3.4-2-5.6 1-2.2 3.6-3 5.8-2 143.4 67.6 249.9 354 254.4 366.2 0.8 2.2-0.5 4.2-2.8 5q0 0 0 0z"/>
							</g>
							<g id="&lt;Group&gt;">
								<path id="&lt;Path&gt;" class="s1" d="m2248.5 989.7c-1.7 0.6-3.6 0.1-4.8-1.3-1.5-1.9-1.3-4.6 0.6-6.1 0.8-0.7 80.8-66.3 179.6-121.5 133.5-74.4 235.8-95.2 304-61.7 2.2 1 3.1 3.6 2 5.7-1 2.2-3.6 3.1-5.8 2-157-77-471.2 179.5-474.3 182.1q-0.6 0.5-1.3 0.8z"/>
							</g>
							<g id="&lt;Group&gt;">
								<path id="&lt;Path&gt;" class="s1" d="m1899.9 1683.2q-0.6 0.2-1.4 0.2c-2.4 0-4.3-1.9-4.3-4.2-0.1-1.3-2.3-126.8-28.6-259.1-24-121.2-73.8-273.1-173.9-308.1-2.3-0.8-3.5-3.3-2.7-5.5 0.8-2.3 3.2-3.5 5.5-2.7 83.5 29.2 144 135.1 179.6 314.8 26.4 133 28.7 259.2 28.7 260.4 0 1.9-1.2 3.5-2.9 4.2z"/>
							</g>
							<g id="&lt;Group&gt;">
								<path id="&lt;Path&gt;" class="s1" d="m2078.1 1480.4c-1.7 0.6-3.7 0-4.9-1.5-1.4-1.9-1-4.6 0.9-6.1 13.9-10.2 341.6-251.1 469.3-228.1 2.4 0.4 3.9 2.7 3.5 5-0.4 2.4-2.7 3.9-5 3.5-124.2-22.4-459.3 224.1-462.6 226.6q-0.6 0.4-1.2 0.6z"/>
							</g>
						</g>
					</g>
				</g>
				<g id="&lt;Group&gt;">
					<path id="&lt;Path&gt;" class="s2" d="m2694.1 1107.6c-21.2-35.9-62.2-65.9-99.9-82.6-267.5-118.1-513.8 441.2-517.9 584.5-4 143.4-46.4 175.7-286.7 165-240.3-10.6-183.1 155.8-183.9 240.9-0.8 85 28.5 167.5-156.1 185.9-184.6 18.4-146.6 84.6-146.6 84.6 0 0 183.8 401.8 201.9 300.8 18.2-100.9 99-234.2 363.5-151.4 113.9 35.7 305 43.9 386.3-62.6 18.9-24.8 40.4-65.3 44.1-96.7 5.1-43.5-9.9-84.7-10.9-127.7-2.5-100.4 106.3-134.2 176.8-175.4 36.7-21.5 73.8-43.8 106.1-71.8 67-58.1 79.8-141.6 59.4-224.7-9.8-39.9-27.2-84.7-22.7-126.4 4.9-44.8 33.8-98 51.5-139.6 13.8-32.6 28.9-64.6 39-98.6 18.8-63.3 31.5-144.3-3.9-204.2z"/>
					<g id="&lt;Clip Group&gt;">
						<g id="&lt;Group&gt;" style="opacity: .8;mix-blend-mode: soft-light">
							<g id="&lt;Group&gt;">
								<path id="&lt;Path&gt;" class="s1" d="m1220.2 2444.5c-2.1 0-4-1.5-4.3-3.7-0.3-2.4 1.3-4.5 3.7-4.9 1.5-0.2 146.9-20.5 321.5-77.4 160.9-52.5 380.1-147.6 510.9-302.7 109.1-129.6 248.5-358.6 382.4-628.3 120.1-241.9 191.9-426.9 191.9-466 0-2.4 1.9-4.3 4.3-4.3 2.4 0 4.3 1.9 4.3 4.3 0 45.8-84.7 252.1-192.7 469.8-134.2 270.3-274.1 499.9-383.6 630-132.1 156.8-352.9 252.6-514.9 305.4-175.3 57.2-321.5 77.6-322.9 77.8q-0.3 0-0.6 0z"/>
							</g>
							<g id="&lt;Group&gt;">
								<path id="&lt;Path&gt;" class="s1" d="m2416.4 1477.1c-2.4 0-4.3-1.8-4.3-4.2 0-3.1-3.4-315.4-113-425-1.7-1.7-1.7-4.4 0-6.1 1.7-1.7 4.4-1.7 6.1 0 112.1 112.1 115.4 418.1 115.5 431.1 0 2.4-1.9 4.2-4.3 4.2q0 0 0 0z"/>
							</g>
							<g id="&lt;Group&gt;">
								<path id="&lt;Path&gt;" class="s1" d="m2251.7 1777.5c-1.8 0-3.4-1.1-4.1-2.8-0.8-2.3 0.4-4.7 2.6-5.5 1-0.4 98.6-35.1 210.2-53.5 150.8-24.9 254.1-9.9 307 44.7 1.6 1.7 1.6 4.5-0.1 6.1-1.7 1.7-4.5 1.6-6.1-0.1-121.8-125.6-504.2 9.5-508 10.9q-0.8 0.2-1.5 0.2z"/>
							</g>
							<g id="&lt;Group&gt;">
								<path id="&lt;Path&gt;" class="s1" d="m1689.1 2312.2q-0.7 0-1.4-0.3c-2.3-0.7-3.5-3.2-2.7-5.5 0.4-1.1 40.8-120 60.8-253.3 18.4-122.3 22.9-282.1-59.5-348.9-1.8-1.5-2.1-4.2-0.6-6.1 1.5-1.8 4.2-2.1 6.1-0.6 68.7 55.7 89.7 175.8 62.5 356.9-20.2 134.1-60.8 253.7-61.2 254.8-0.6 1.8-2.3 3-4 3z"/>
							</g>
							<g id="&lt;Group&gt;">
								<path id="&lt;Path&gt;" class="s1" d="m1925.4 2181.6c-1.9 0-3.6-1.2-4.1-3-0.7-2.3 0.6-4.7 2.8-5.4 16.6-5 406.4-120.8 518.9-55.9 2 1.2 2.7 3.8 1.5 5.9-1.2 2.1-3.8 2.8-5.9 1.6-109.2-63.1-508 55.5-512 56.7q-0.6 0.1-1.2 0.1z"/>
							</g>
						</g>
					</g>
				</g>
			</g>
			<g id="&lt;Group&gt;">
				<g id="&lt;Group&gt;">
					<path id="&lt;Compound Path&gt;" fill-rule="evenodd" class="s3" d="m1809.8 90.5l37.7 4.9c6 0.8 10.2 6.3 9.4 12.4l-3 21.9c9.8 3 19.2 6.8 28.1 11.5l13.4-17.5c3.8-4.8 10.7-5.7 15.5-2l30.2 23.1c4.8 3.8 5.7 10.7 2 15.5l-13.4 17.4c6.9 7.6 13.2 15.7 18.7 24.3l20.2-8.4c5.6-2.3 12 0.4 14.4 6l14.6 35.5c2.4 5.6-0.3 12.2-5.9 14.5l-20.1 8.4c2.2 10 3.6 20.3 4 30.8l21.6 2.8c6.1 0.8 10.4 6.4 9.6 12.6l-4.9 38.4c-0.8 6.2-6.4 10.5-12.5 9.7l-21.7-2.8c-3.1 10-7 19.7-11.8 28.9l17.4 13.5c4.9 3.8 5.8 10.8 2.1 15.8l-23.5 31.1c-3.8 5-10.8 6-15.7 2.2l-17.5-13.7c-7.6 7.1-15.9 13.6-24.6 19.2l8.4 20.8c2.4 5.8-0.4 12.5-6.1 14.9l-35.8 15.2c-5.8 2.4-12.3-0.3-14.7-6.1l-8.4-21c-10 2.3-20.3 3.6-30.7 4.1l-3.1 22.6c-0.9 6.3-6.5 10.7-12.7 9.9l-38.4-5c-6.2-0.8-10.4-6.6-9.6-12.8l3.2-22.9c-9.9-3.1-19.3-7.1-28.3-11.9l-14 18.3c-3.9 5-10.9 6-15.8 2.2l-30.5-23.9c-4.8-3.8-5.6-11-1.8-15.9l14.2-18.5c-6.8-7.6-12.9-15.8-18.3-24.6l-21.3 9c-5.7 2.4-12.2-0.4-14.5-6.1l-14.2-36.1c-2.3-5.8 0.6-12.4 6.3-14.8l21.3-8.8c-2-9.9-3.1-20.1-3.4-30.5l-22.7-3c-6.1-0.8-10.3-6.4-9.4-12.5l5.7-38.4c0.9-6.1 6.6-10.4 12.6-9.6l22.7 3c3.2-9.9 7.2-19.3 11.9-28.2l-17.8-13.9c-4.8-3.7-5.6-10.7-1.8-15.5l23.8-30.4c3.8-4.9 10.7-5.8 15.5-2.1l17.8 13.8c7.5-6.9 15.6-13 24.2-18.5l-8.4-20.8c-2.2-5.7 0.5-12.1 6.2-14.5l35.3-14.5c5.7-2.4 12.1 0.3 14.4 5.9l8.3 20.6c9.8-2.2 19.9-3.5 30.1-4l3.1-22c0.8-6.1 6.4-10.3 12.4-9.5zm-27.9 344.5c75.8 9.9 145.4-44.2 155.6-120.6 10-75.8-42.6-145-117.6-154.8-74.9-9.8-144.4 43.3-155.3 119-11 76.3 41.5 146.5 117.3 156.4z"/>
				</g>
				<g id="&lt;Group&gt;">
					<path id="&lt;Compound Path&gt;" fill-rule="evenodd" class="s3" d="m1239 73.4l58.2 7.6c9.3 1.2 15.9 9.8 14.6 19.1l-4.6 33.8c15.1 4.7 29.7 10.7 43.4 17.8l20.8-26.9c5.7-7.5 16.4-8.9 23.9-3.2l46.6 35.8c7.4 5.7 8.9 16.5 3.1 24l-20.6 26.9c10.7 11.6 20.3 24.2 28.8 37.5l31.2-13c8.7-3.6 18.7 0.5 22.3 9.3l22.7 54.8c3.6 8.8-0.5 18.8-9.2 22.5l-31.1 13c3.5 15.4 5.5 31.3 6.2 47.5l33.5 4.4c9.4 1.3 16 9.9 14.8 19.4l-7.6 59.5c-1.3 9.5-9.9 16.2-19.3 15l-33.6-4.4c-4.8 15.6-10.9 30.5-18.2 44.7l26.9 20.8c7.5 5.9 9 16.9 3.2 24.5l-36.3 48.2c-5.8 7.7-16.7 9.1-24.3 3.3l-27.1-21.1c-11.8 11-24.5 20.9-38 29.6l13 32.2c3.6 9-0.6 19.3-9.4 23l-55.5 23.5c-8.8 3.8-19-0.5-22.6-9.5l-13-32.4c-15.5 3.5-31.3 5.6-47.5 6.3l-4.8 35.1c-1.3 9.6-10.1 16.5-19.6 15.2l-59.4-7.8c-9.5-1.2-16.1-10.1-14.8-19.7l5-35.4c-15.3-4.9-30-11-43.9-18.4l-21.6 28.3c-6 7.8-16.9 9.2-24.4 3.3l-47.1-36.9c-7.5-5.9-8.8-16.9-2.9-24.6l22-28.6c-10.5-11.8-19.9-24.5-28.2-38l-33 13.8c-8.9 3.8-18.9-0.5-22.5-9.4l-21.9-55.7c-3.5-8.9 0.9-19.1 9.8-22.8l32.9-13.8c-3.1-15.3-4.9-31-5.3-47l-35.1-4.7c-9.4-1.2-15.9-9.9-14.5-19.4l8.8-59.3c1.4-9.4 10.2-16.1 19.5-14.9l35 4.6c5-15.2 11.2-29.7 18.5-43.5l-27.5-21.5c-7.5-5.7-8.7-16.5-2.8-24.1l36.7-47c5.9-7.5 16.6-8.9 24.1-3.1l27.5 21.3c11.6-10.6 24.1-20.2 37.4-28.6l-13-32.2c-3.5-8.7 0.8-18.7 9.5-22.3l54.7-22.5c8.8-3.6 18.7 0.5 22.2 9.2l12.9 31.8c15.1-3.4 30.7-5.5 46.5-6.2l4.8-34.1c1.3-9.3 9.9-15.9 19.2-14.6zm-43.2 532.6c117.2 15.4 224.9-68.4 240.5-186.4 15.6-117.3-65.8-224.2-181.7-239.4-115.8-15.2-223.3 67-240.2 184.1-16.9 117.8 64.3 226.3 181.4 241.7z"/>
				</g>
			</g>
			<g id="&lt;Group&gt;">
				<path id="&lt;Path&gt;" class="s4" d="m1164 418.3l-254.7 2117.5c-3.8 31.8 18 60.2 48.7 63.3l1061.1 116.5c65 4 100.6-29.2 104.6-62.9l267.5-2251.3c4-33.6-27.9-64-93.2-64l-1070.8 22.5c-31 0.6-59.4 26.8-63.2 58.4z"/>
				<path id="&lt;Path&gt;" class="s5" d="m1116.3 414.7l-256.2 2128.1c-3.8 31.9 18.1 60.5 48.9 63.6l1100.1 109.5c34.5 3.4 66.1-21.5 70.1-55.5l269-2262.9c4-33.7-21.3-60.9-56.2-60.3l-1112.3 18.8c-31.1 0.5-59.6 26.9-63.4 58.7z"/>
				<path id="&lt;Path&gt;" class="s3" d="m1137.2 532l-237.5 1973.2c-3.6 29.9 17 56.5 45.8 59.3l1034.6 100.6c32.1 3.1 61.4-20.2 65.2-51.8l248.6-2090.4c3.7-31.4-19.8-56.8-52.2-56.5l-1045.2 11.1c-29.1 0.4-55.8 24.9-59.3 54.5z"/>
				<path id="&lt;Path&gt;" class="s6" d="m1692 413.2c-1.4 11.3 6.7 20.4 18.1 20.2 11.4-0.1 21.8-9.4 23.2-20.8 1.3-11.3-6.8-20.4-18.3-20.2-11.4 0.1-21.7 9.5-23 20.8z"/>
				<g id="&lt;Group&gt;" style="mix-blend-mode: soft-light">
					<path id="&lt;Path&gt;" class="s1" d="m1316 1856.6c211.8-391.6 528.2-508.8 623.5-912.4 51.5-218.2 16.4-427-42.7-600.3l395.2-6.7c34.9-0.6 60.2 26.6 56.2 60.3l-269 2262.9c-4 34-35.6 58.9-70.1 55.5l-864.8-86.1c-6.4-350.9 77.3-598.7 171.7-773.2z"/>
				</g>
			</g>
			<g id="&lt;Group&gt;">
				<g id="&lt;Group&gt;">
					<path id="&lt;Path&gt;" class="s7" d="m71.9 639.2c0-208 181.5-376.7 399.3-376.7 211.4 0 378.2 159.8 378.2 356.9 0 197.1-166.8 365.4-378.2 376.2-217.8 11.1-399.3-148.3-399.3-356.4z"/>
				</g>
				<g id="&lt;Group&gt;">
					<path id="&lt;Path&gt;" class="s8" d="m95.3 622.6c0-208 176.3-376.7 387.8-376.7 205.3 0.1 367.3 159.8 367.3 356.9 0 197.1-162 365.4-367.3 376.2-211.5 11.1-387.8-148.3-387.8-356.4z"/>
				</g>
				<g id="&lt;Group&gt;" style="opacity: .5;mix-blend-mode: soft-light">
					<path id="&lt;Path&gt;" class="s1" d="m155.7 621.1c0-174.9 148.1-316.6 325.8-316.5 172.4 0 308.5 134.2 308.5 299.8 0 165.6-136.1 306.9-308.5 316-177.7 9.4-325.8-124.5-325.8-299.3z"/>
				</g>
				<path id="&lt;Path&gt;" class="s9" d="m469.2 331.4c172.5 0 308.6 134.3 308.6 299.9 0 39.3-7.8 77.3-21.8 112.5 21.7-42.4 34-89.8 34-139.4 0-165.6-136.1-299.8-308.5-299.8-137.1-0.1-256.4 84.3-303.9 203 53.7-104.4 165.2-176.2 291.6-176.2z"/>
				<g id="&lt;Group&gt;">
					<path id="&lt;Compound Path&gt;" fill-rule="evenodd" class="s1" d="m611.6 573.5v150.9c0 43.7-36.5 80-81.5 81.2l-113.2 3c-45.7 1.2-82.8-33.6-82.8-77.8v-152.5zm-102.8 160.9l-21-62.7c9-5 15.1-14.4 15.1-25.1 0-15.6-13.1-28-29.3-27.7-16.1 0.3-29.3 13.2-29.3 28.9 0 10.7 6.1 19.8 15.1 24.5l-21 63.7z"/>
					<path id="&lt;Path&gt;" class="s1" d="m579.4 560.3c-12 0.2-21.7-9.1-21.7-20.8 0-44.8-37.7-80.9-84.1-80.3-46.6 0.6-84.6 37.8-84.6 83 0 11.7-9.9 21.4-22.1 21.6-12.2 0.2-22.1-9.2-22.1-20.9 0-68.7 57.9-125.2 128.8-126 70.5-0.8 127.5 53.9 127.5 121.9 0 11.6-9.7 21.3-21.7 21.5z"/>
				</g>
			</g>
			<g id="&lt;Group&gt;">
				<path id="&lt;Path&gt;" class="s10" d="m841.5 1430.5c0 0-7.7-28.8-2.2-36.2 5.4-7.4 38.8-36.9 35.6-27.3-3.2 9.6-8 16.1-8 16.1 0 0 17.9 8.3 6.4 20.8-11.6 12.5-15.4 15.4-16.1 26.6-0.6 11.2-8 15.1-15.7 0z"/>
				<path id="&lt;Path&gt;" class="s11" d="m521.2 2676.3c0 0-4.1 25-3.6 33.8 0.5 8.9 99.1 13.5 100.1 6.8 1-6.7-16.3-17.2-28.5-21-12.1-3.7-47.8-13.7-47.8-13.7z"/>
				<path id="&lt;Path&gt;" class="s12" d="m545.1 2651.4l-3.2 31c0 0-11.4 7.6-21.5 1.8l-5-33.8z"/>
				<path id="&lt;Path&gt;" class="s13" d="m345.3 2716.8c0 0-4.1 24.9-3.6 33.8 0.5 8.9 99.1 13.4 100.1 6.8 1-6.7-16.3-17.3-28.4-21-12.2-3.7-47.8-13.7-47.8-13.7z"/>
				<path id="&lt;Path&gt;" class="s14" d="m369.2 2691.9l-3.1 31c0 0-11.5 7.6-21.6 1.7l-5-33.8z"/>
				<path id="&lt;Path&gt;" class="s15" d="m527.2 1841.1q17.1 34.7 34.2 69.4c9.2 131.8 13.7 275.1 10.8 428.4-2.2 114.1-8.3 222.2-17 323.6q-23.2-1.1-46.4-2.1c-22.3-44.4-48.7-111.6-51.1-194.5-2.6-86.5 23.7-98 22-180.8-2.2-107.3-47.2-135.9-71.2-265.1-9.1-49.3-15.3-113.8-8-192.1q63.4 6.6 126.7 13.2z"/>
				<path id="&lt;Path&gt;" class="s16" d="m400.5 1827.9q34.2 3.6 68.4 7.2c41.1 71.4 52.6 145.7 45.4 178.6-10.2 46.6-37.2 61.5-35.7 108.2 1.5 46.2 28.7 58.2 46 112.7 11.9 37.7 8.8 72.4 2 140.2-13.7 136.6-46.7 178.4-19.1 223.2 7.9 12.7 22 27.8 49.7 39.4-0.7 8.4-1.3 16.8-2 25.1q-23.2-1.1-46.4-2.1c-22.3-44.4-48.7-111.6-51.1-194.5-2.6-86.5 23.7-98 22-180.8-2.2-107.3-47.2-135.9-71.2-265.1-9.1-49.3-15.3-113.8-8-192.1z"/>
				<path id="&lt;Path&gt;" class="s17" d="m465.9 1882.7c-21.4 116.7-40.3 241.5-55 373.9-17.8 159.8-27.3 310.5-31.1 450.5q-25.4 0.7-50.8 1.4c-66.8-132.2-70.9-221.8-61.3-280.2 3.7-22.4 13.8-66.5 16.1-132.4 1.6-46-1.3-80.9-5-122.9-8-92.2-17.7-112.3-19.1-182.8-1.4-66.1-1.6-99.6 17.2-119.1 49.8-51.4 179.2 7.1 189 11.6z"/>
				<path id="&lt;Path&gt;" class="s18" d="m832.6 1426.1q17-1.2 33.9-2.4c26.6 107.5 7.5 211.8-52.5 250.2-93.9 59.9-268.2-53-306-175.9-16.6-54-12.8-131.9 20.4-147 9.2-4.2 23.4-4.8 54.4 12.5 92.3 51.9 94.8 149.9 141.7 158.2 20.9 3.7 54.6-9.6 108.1-95.6z"/>
				<path id="&lt;Path&gt;" class="s19" d="m574.4 1934.1c16.2-27-4.2-53-8.8-104-5.3-57.9 17-67.6 39.1-163.5 14.6-63.8 28.7-125 11.9-196.7-8.1-34.4-21.7-92.7-70-120.8-24.8-14.6-58.8-13.1-125.8-9.6-82.8 4.3-124.2 6.5-155 22.7-4.6 2.4-98.5 53.5-105 136.8-6.5 84.8 85.8 96.1 98.1 209.2 5.5 50.7-4.3 128.7-10.7 179.4-6.2 48.6-10.4 61-0.8 75.7 23.1 35.5 93.9 25.4 235.4 5.2 55.5-8 79.4-14.3 91.6-34.4z"/>
				<path id="&lt;Path&gt;" class="s20" d="m359 1690c-6 22-27.5 38.5-42.5 92.1-3.2 11.5-26.3 93.9 3.6 114.2 17.3 11.7 32.8-10.5 74.7-13.4 72.6-5 107.2 56 154.6 39.4 8.2-2.9 19.1-9.1 29.9-23.3 2.2 12.8 1.8 23.9-4.9 35.1-12.2 20.1-36.1 26.4-91.6 34.4-141.5 20.2-212.3 30.3-235.4-5.2-9.6-14.7-5.4-27.1 0.8-75.7 6.4-50.7 16.2-128.7 10.7-179.4-12.3-113.1-104.6-124.4-98.1-209.2 1.8-22.7 10.1-42.8 21.3-60.4 117.1 47.4 195.7 182.2 176.9 251.4z"/>
				<path id="&lt;Path&gt;" class="s21" d="m211.1 1856.7l23.4 15c4.2-4.9 14-14.7 29.2-18 17.1-3.8 36.8 1.6 37.2 7.1 0.4 4.4-11.6 8.8-13.4 9.5-15 5.5-26 0.9-32.1 6.9-2.1 2.1-4.8 6.1-10.9 9.7-1.6 1-3.3 1.8-4.2 2.2-10 3.9-27.1-13.5-28.6-15z"/>
				<path id="&lt;Path&gt;" class="s22" d="m280.3 1549.4c17-40.5 28.7-102.7 2-195-176.4 69.5-266.4 234.3-231.3 364.9 29 107.7 134.3 160.1 157.8 171.1q8.2-18.6 16.4-37.3c-27.2-30.3-57.9-75.2-53.5-126.3 6-71 74.3-95.2 108.6-177.4z"/>
				<path id="&lt;Path&gt;" class="s23" d="m416.5 1256c0 0-1.4 30.9-11 54-8.6 20.8-54.2 34-63.4 38.6-9.2 4.7 17.3 18.3 43.9 21 26.7 2.7 102.7-3.4 116.4-13.5 13.7-10.1-11-9.3-30-16.3-19-7-30-44.1-26.7-61 3.4-16.9-29.2-22.8-29.2-22.8z"/>
				<path id="&lt;Path&gt;" class="s24" d="m458.6 1244.8c13.8-13.6 15.7-15.2 17.3-19.8 6-18.9-8.6-44.7-27.8-51-1-0.3-13.8-4.5-18.7 1.1-4.2 4.7 1.9 11.3-1 20.4-2.7 8.6-10.1 9.2-23.8 20.4-11.3 9.2-18.4 15-20 23-3.3 16.7 16.8 40.8 34.6 40.1 6.4-0.2 8.2-3.5 39.4-34.2z"/>
				<g id="&lt;Group&gt;">
					<path id="&lt;Path&gt;" class="s25" d="m421 1281.6c0 0 14.7 16.6 37 11.1 20.1-4.9 15-50.9 0.3-58.2-4.9-2.5-13.8-2.3-20.5 0.9-3.9 1.9-5 3.9-11.5 6.9-6 2.7-7.9 2.4-9.5 4.3-2.1 2.4-2.9 7.6 3.4 20.2-4.6-3.2-9.5-3.9-12.5-1.8-0.5 0.4-1.7 1.6-2.2 3.2-1.9 5.7 4 11.4 15.5 13.4z"/>
				</g>
			</g>
			<g id="&lt;Group&gt;">
				<path id="&lt;Path&gt;" class="s26" d="m2096.2 659l5.2 27.9-106.4 0.3-923.6 2.2c-23.8 0-45.6 19.7-48.9 43.8l-220.5 1473.6c-3.3 24.4 34.7 61.6 58.3 63.4l409.8 31.5v-0.5l612.9 47q0 0 0 0l1.5 0.6c26.2 2.1 50.2-16.9 53.6-42.7 0 0 0 0.1 0 0.1l206.5-1573.2c3.3-25.6-22-74-48.4-74z"/>
				<g id="&lt;Group&gt;">
					<path id="&lt;Path&gt;" class="s27" d="m1917.2 2275.5c-3.4 25.7-27.4 45-53.6 43l-1025.2-78.8c-23.6-1.8-40-23-36.7-47.4l200.4-1489.2c3.2-24.2 25.1-43.8 48.8-43.9l1031-2.8c26.4-0.1 45 20.5 41.7 46.1z"/>
					<path id="&lt;Path&gt;" class="s1" d="m1930.8 1456.5c-1.7 12.7-13.6 22.3-26.6 21.8l-902.3-32.9c-11.9-0.5-20.3-10.3-18.7-22.5l17.8-131.5c1.6-12.1 12.5-20.4 24.4-20.1l903.1 25.1c13 0.4 22.3 9.6 20.6 22.3z"/>
					<path id="&lt;Path&gt;" class="s1" d="m1895.9 1723.7c-1.7 12.7-13.6 23.6-26.7 23l-901.6-44.5c-11.9-0.6-20.2-12-18.5-24.2l17.8-134.1c1.7-12.1 12.6-22.6 24.6-22.1l902.2 36.4c13 0.5 22.2 12.3 20.5 25z"/>
					<path id="&lt;Path&gt;" class="s28" d="m1949.2 1318.2q-3.2-1-6.9-1.1l-903.2-25.1c-11.9-0.3-22.7 7.9-24.4 20.1l-17.7 131.5c-0.1 0.3-0.1 0.6-0.1 1-9.2-2.6-15.1-11.3-13.7-21.7l17.8-131.5c1.6-12.1 12.5-20.4 24.4-20.1l903.1 25.1c12.8 0.4 22 9.3 20.7 21.8z"/>
					<path id="&lt;Path&gt;" class="s29" d="m1914.4 1580.3c-2.2-0.9-4.5-1.4-7-1.5l-902.2-36.4c-11.9-0.5-22.9 10-24.5 22.2l-17.9 134c-0.1 0.9-0.2 1.7-0.2 2.6-9.1-3-14.9-12.8-13.6-23.2l17.9-134.1c1.7-12.1 12.6-22.6 24.6-22.1l902.1 36.4c12.1 0.5 20.8 10.5 20.8 22.1z"/>
					<path id="&lt;Path&gt;" class="s30" d="m1656.1 1940.2c2.6-20.2-11.6-38.8-31.9-39.9l-466.7-26.8c-19.4-1.1-37.2 15.1-39.9 34.8l-19.2 145.2c-2.6 19.6 10.8 38.5 30.1 39.8l466.5 31.9c20.3 1.4 38.9-15.7 41.6-35.9z"/>
					<g id="&lt;Group&gt;">
						<path id="&lt;Path&gt;" class="s31" d="m1691.3 962.1c-6.1 46.4-30 88.3-63.9 119.1-36.5 33.2-84.6 53.4-134.6 52.5-49.8-1-91.7-22.8-118.7-56.7-24.8-31.3-36.9-73.1-30.8-118.7 12.6-94.9 99.8-171.7 195.6-171.4 96.6 0.2 165.2 78.6 152.4 175.2z"/>
						<g id="&lt;Group&gt;">
							<path id="&lt;Path&gt;" class="s1" d="m1598.3 909.3c-5.6 41.6-43.9 74.9-85.6 74.4-41.5-0.5-70.6-34.4-65.1-75.6 5.5-41.3 43.5-74.6 85-74.4 41.7 0.2 71.2 34 65.7 75.6z"/>
							<path id="&lt;Path&gt;" class="s1" d="m1627.4 1081.2c-36.5 33.2-84.6 53.4-134.6 52.5-49.8-1-91.7-22.8-118.7-56.7 30.8-42.9 81.6-71.5 135.6-70.8 54.2 0.7 98 30.8 117.7 75z"/>
						</g>
					</g>
					<path id="&lt;Path&gt;" class="s32" d="m2123.6 702.5l-206.4 1573c-3.4 25.7-28.9 44.9-55.1 42.9l-615.7-47.3c-29.3-30-53.4-65.9-70.6-109-8.4-21.2-14.6-44-18.7-68-11.4-66.4-7-141.9 9.7-216 12.8-57.1 32.9-113.4 58.6-164.2 20.6-40.7 44.8-77.8 71.8-109 19.5-22.5 40.5-44.3 62.7-65.7 26.8-25.9 55.3-51.1 84.6-76.1 68.4-58.3 141.6-115.2 209.4-175.4 156.5-138.8 283.4-293.8 252.9-515.1-1-7-10.6-60.3-22.7-115.7l196.3-0.5c26.3-0.1 46.5 20.6 43.2 46.1z"/>
				</g>
			</g>
		</g>
	</g>
</svg>